<svg xmlns="http://www.w3.org/2000/svg" xmlns:xlink="http://www.w3.org/1999/xlink" style="vertical-align: -0.566ex;" width="248.09" height="22.62" role="img" focusable="false" viewBox="0 -750 10965.7 1000"><defs><path id="MJX-13-TEX-I-1D449" d="M52 648Q52 670 65 683H76Q118 680 181 680Q299 680 320 683H330Q336 677 336 674T334 656Q329 641 325 637H304Q282 635 274 635Q245 630 242 620Q242 618 271 369T301 118L374 235Q447 352 520 471T595 594Q599 601 599 609Q599 633 555 637Q537 637 537 648Q537 649 539 661Q542 675 545 679T558 683Q560 683 570 683T604 682T668 681Q737 681 755 683H762Q769 676 769 672Q769 655 760 640Q757 637 743 637Q730 636 719 635T698 630T682 623T670 615T660 608T652 599T645 592L452 282Q272 -9 266 -16Q263 -18 259 -21L241 -22H234Q216 -22 216 -15Q213 -9 177 305Q139 623 138 626Q133 637 76 637H59Q52 642 52 648Z"/><path id="MJX-13-TEX-N-28" d="M94 250Q94 319 104 381T127 488T164 576T202 643T244 695T277 729T302 750H315H319Q333 750 333 741Q333 738 316 720T275 667T226 581T184 443T167 250T184 58T225 -81T274 -167T316 -220T333 -241Q333 -250 318 -250H315H302L274 -226Q180 -141 137 -14T94 250Z"/><path id="MJX-13-TEX-I-1D460" d="M131 289Q131 321 147 354T203 415T300 442Q362 442 390 415T419 355Q419 323 402 308T364 292Q351 292 340 300T328 326Q328 342 337 354T354 372T367 378Q368 378 368 379Q368 382 361 388T336 399T297 405Q249 405 227 379T204 326Q204 301 223 291T278 274T330 259Q396 230 396 163Q396 135 385 107T352 51T289 7T195 -10Q118 -10 86 19T53 87Q53 126 74 143T118 160Q133 160 146 151T160 120Q160 94 142 76T111 58Q109 57 108 57T107 55Q108 52 115 47T146 34T201 27Q237 27 263 38T301 66T318 97T323 122Q323 150 302 164T254 181T195 196T148 231Q131 256 131 289Z"/><path id="MJX-13-TEX-N-2C" d="M78 35T78 60T94 103T137 121Q165 121 187 96T210 8Q210 -27 201 -60T180 -117T154 -158T130 -185T117 -194Q113 -194 104 -185T95 -172Q95 -168 106 -156T131 -126T157 -76T173 -3V9L172 8Q170 7 167 6T161 3T152 1T140 0Q113 0 96 17Z"/><path id="MJX-13-TEX-I-1D454" d="M311 43Q296 30 267 15T206 0Q143 0 105 45T66 160Q66 265 143 353T314 442Q361 442 401 394L404 398Q406 401 409 404T418 412T431 419T447 422Q461 422 470 413T480 394Q480 379 423 152T363 -80Q345 -134 286 -169T151 -205Q10 -205 10 -137Q10 -111 28 -91T74 -71Q89 -71 102 -80T116 -111Q116 -121 114 -130T107 -144T99 -154T92 -162L90 -164H91Q101 -167 151 -167Q189 -167 211 -155Q234 -144 254 -122T282 -75Q288 -56 298 -13Q311 35 311 43ZM384 328L380 339Q377 350 375 354T369 368T359 382T346 393T328 402T306 405Q262 405 221 352Q191 313 171 233T151 117Q151 38 213 38Q269 38 323 108L331 118L384 328Z"/><path id="MJX-13-TEX-N-29" d="M60 749L64 750Q69 750 74 750H86L114 726Q208 641 251 514T294 250Q294 182 284 119T261 12T224 -76T186 -143T145 -194T113 -227T90 -246Q87 -249 86 -250H74Q66 -250 63 -250T58 -247T55 -238Q56 -237 66 -225Q221 -64 221 250T66 725Q56 737 55 738Q55 746 60 749Z"/><path id="MJX-13-TEX-N-3D" d="M56 347Q56 360 70 367H707Q722 359 722 347Q722 336 708 328L390 327H72Q56 332 56 347ZM56 153Q56 168 72 173H708Q722 163 722 153Q722 140 707 133H70Q56 140 56 153Z"/><path id="MJX-13-TEX-N-2212" d="M84 237T84 250T98 270H679Q694 262 694 250T679 230H98Q84 237 84 250Z"/><path id="MJX-13-TEX-N-2225" d="M133 736Q138 750 153 750Q164 750 170 739Q172 735 172 250T170 -239Q164 -250 152 -250Q144 -250 138 -244L137 -243Q133 -241 133 -179T132 250Q132 731 133 736ZM329 739Q334 750 346 750Q353 750 361 744L362 743Q366 741 366 679T367 250T367 -178T362 -243L361 -244Q355 -250 347 -250Q335 -250 329 -239Q327 -235 327 250T329 739Z"/><path id="MJX-13-TEX-I-1D719" d="M409 688Q413 694 421 694H429H442Q448 688 448 686Q448 679 418 563Q411 535 404 504T392 458L388 442Q388 441 397 441T429 435T477 418Q521 397 550 357T579 260T548 151T471 65T374 11T279 -10H275L251 -105Q245 -128 238 -160Q230 -192 227 -198T215 -205H209Q189 -205 189 -198Q189 -193 211 -103L234 -11Q234 -10 226 -10Q221 -10 206 -8T161 6T107 36T62 89T43 171Q43 231 76 284T157 370T254 422T342 441Q347 441 348 445L378 567Q409 686 409 688ZM122 150Q122 116 134 91T167 53T203 35T237 27H244L337 404Q333 404 326 403T297 395T255 379T211 350T170 304Q152 276 137 237Q122 191 122 150ZM500 282Q500 320 484 347T444 385T405 400T381 404H378L332 217L284 29Q284 27 285 27Q293 27 317 33T357 47Q400 66 431 100T475 170T494 234T500 282Z"/></defs><g stroke="currentColor" fill="currentColor" stroke-width="0" transform="scale(1,-1)"><g data-mml-node="math"><g data-mml-node="mstyle" fill="orange" stroke="orange"><g data-mml-node="mi"><use data-c="1D449" xlink:href="#MJX-13-TEX-I-1D449"/></g><g data-mml-node="mo" transform="translate(769,0)"><use data-c="28" xlink:href="#MJX-13-TEX-N-28"/></g><g data-mml-node="mi" transform="translate(1158,0)"><use data-c="1D460" xlink:href="#MJX-13-TEX-I-1D460"/></g><g data-mml-node="mo" transform="translate(1627,0)"><use data-c="2C" xlink:href="#MJX-13-TEX-N-2C"/></g><g data-mml-node="mi" transform="translate(2071.7,0)"><use data-c="1D454" xlink:href="#MJX-13-TEX-I-1D454"/></g><g data-mml-node="mo" transform="translate(2548.7,0)"><use data-c="29" xlink:href="#MJX-13-TEX-N-29"/></g><g data-mml-node="mo" transform="translate(3215.4,0)"><use data-c="3D" xlink:href="#MJX-13-TEX-N-3D"/></g><g data-mml-node="mo" transform="translate(4271.2,0)"><use data-c="2212" xlink:href="#MJX-13-TEX-N-2212"/></g><g data-mml-node="mo" transform="translate(5049.2,0)"><use data-c="2225" xlink:href="#MJX-13-TEX-N-2225"/></g><g data-mml-node="mi" transform="translate(5549.2,0)"><use data-c="1D719" xlink:href="#MJX-13-TEX-I-1D719"/></g><g data-mml-node="mo" transform="translate(6145.2,0)"><use data-c="28" xlink:href="#MJX-13-TEX-N-28"/></g><g data-mml-node="mi" transform="translate(6534.2,0)"><use data-c="1D460" xlink:href="#MJX-13-TEX-I-1D460"/></g><g data-mml-node="mo" transform="translate(7003.2,0)"><use data-c="29" xlink:href="#MJX-13-TEX-N-29"/></g><g data-mml-node="mo" transform="translate(7614.4,0)"><use data-c="2212" xlink:href="#MJX-13-TEX-N-2212"/></g><g data-mml-node="mi" transform="translate(8614.7,0)"><use data-c="1D719" xlink:href="#MJX-13-TEX-I-1D719"/></g><g data-mml-node="mo" transform="translate(9210.7,0)"><use data-c="28" xlink:href="#MJX-13-TEX-N-28"/></g><g data-mml-node="mi" transform="translate(9599.7,0)"><use data-c="1D454" xlink:href="#MJX-13-TEX-I-1D454"/></g><g data-mml-node="mo" transform="translate(10076.7,0)"><use data-c="29" xlink:href="#MJX-13-TEX-N-29"/></g><g data-mml-node="mo" transform="translate(10465.7,0)"><use data-c="2225" xlink:href="#MJX-13-TEX-N-2225"/></g></g></g></g><style xmlns="http://www.w3.org/1999/xhtml" type="text/css">.mjx-solid { stroke-width: 80px; }</style></svg>