<svg xmlns="http://www.w3.org/2000/svg" xmlns:xlink="http://www.w3.org/1999/xlink" style="vertical-align: -0.566ex;" width="240.96" height="22.62" role="img" focusable="false" viewBox="0 -750 10650.4 1000"><defs><path id="MJX-48-TEX-N-2225" d="M133 736Q138 750 153 750Q164 750 170 739Q172 735 172 250T170 -239Q164 -250 152 -250Q144 -250 138 -244L137 -243Q133 -241 133 -179T132 250Q132 731 133 736ZM329 739Q334 750 346 750Q353 750 361 744L362 743Q366 741 366 679T367 250T367 -178T362 -243L361 -244Q355 -250 347 -250Q335 -250 329 -239Q327 -235 327 250T329 739Z"/><path id="MJX-48-TEX-I-1D719" d="M409 688Q413 694 421 694H429H442Q448 688 448 686Q448 679 418 563Q411 535 404 504T392 458L388 442Q388 441 397 441T429 435T477 418Q521 397 550 357T579 260T548 151T471 65T374 11T279 -10H275L251 -105Q245 -128 238 -160Q230 -192 227 -198T215 -205H209Q189 -205 189 -198Q189 -193 211 -103L234 -11Q234 -10 226 -10Q221 -10 206 -8T161 6T107 36T62 89T43 171Q43 231 76 284T157 370T254 422T342 441Q347 441 348 445L378 567Q409 686 409 688ZM122 150Q122 116 134 91T167 53T203 35T237 27H244L337 404Q333 404 326 403T297 395T255 379T211 350T170 304Q152 276 137 237Q122 191 122 150ZM500 282Q500 320 484 347T444 385T405 400T381 404H378L332 217L284 29Q284 27 285 27Q293 27 317 33T357 47Q400 66 431 100T475 170T494 234T500 282Z"/><path id="MJX-48-TEX-N-28" d="M94 250Q94 319 104 381T127 488T164 576T202 643T244 695T277 729T302 750H315H319Q333 750 333 741Q333 738 316 720T275 667T226 581T184 443T167 250T184 58T225 -81T274 -167T316 -220T333 -241Q333 -250 318 -250H315H302L274 -226Q180 -141 137 -14T94 250Z"/><path id="MJX-48-TEX-I-1D465" d="M52 289Q59 331 106 386T222 442Q257 442 286 424T329 379Q371 442 430 442Q467 442 494 420T522 361Q522 332 508 314T481 292T458 288Q439 288 427 299T415 328Q415 374 465 391Q454 404 425 404Q412 404 406 402Q368 386 350 336Q290 115 290 78Q290 50 306 38T341 26Q378 26 414 59T463 140Q466 150 469 151T485 153H489Q504 153 504 145Q504 144 502 134Q486 77 440 33T333 -11Q263 -11 227 52Q186 -10 133 -10H127Q78 -10 57 16T35 71Q35 103 54 123T99 143Q142 143 142 101Q142 81 130 66T107 46T94 41L91 40Q91 39 97 36T113 29T132 26Q168 26 194 71Q203 87 217 139T245 247T261 313Q266 340 266 352Q266 380 251 392T217 404Q177 404 142 372T93 290Q91 281 88 280T72 278H58Q52 284 52 289Z"/><path id="MJX-48-TEX-N-29" d="M60 749L64 750Q69 750 74 750H86L114 726Q208 641 251 514T294 250Q294 182 284 119T261 12T224 -76T186 -143T145 -194T113 -227T90 -246Q87 -249 86 -250H74Q66 -250 63 -250T58 -247T55 -238Q56 -237 66 -225Q221 -64 221 250T66 725Q56 737 55 738Q55 746 60 749Z"/><path id="MJX-48-TEX-N-2212" d="M84 237T84 250T98 270H679Q694 262 694 250T679 230H98Q84 237 84 250Z"/><path id="MJX-48-TEX-I-1D466" d="M21 287Q21 301 36 335T84 406T158 442Q199 442 224 419T250 355Q248 336 247 334Q247 331 231 288T198 191T182 105Q182 62 196 45T238 27Q261 27 281 38T312 61T339 94Q339 95 344 114T358 173T377 247Q415 397 419 404Q432 431 462 431Q475 431 483 424T494 412T496 403Q496 390 447 193T391 -23Q363 -106 294 -155T156 -205Q111 -205 77 -183T43 -117Q43 -95 50 -80T69 -58T89 -48T106 -45Q150 -45 150 -87Q150 -107 138 -122T115 -142T102 -147L99 -148Q101 -153 118 -160T152 -167H160Q177 -167 186 -165Q219 -156 247 -127T290 -65T313 -9T321 21L315 17Q309 13 296 6T270 -6Q250 -11 231 -11Q185 -11 150 11T104 82Q103 89 103 113Q103 170 138 262T173 379Q173 380 173 381Q173 390 173 393T169 400T158 404H154Q131 404 112 385T82 344T65 302T57 280Q55 278 41 278H27Q21 284 21 287Z"/><path id="MJX-48-TEX-N-2264" d="M674 636Q682 636 688 630T694 615T687 601Q686 600 417 472L151 346L399 228Q687 92 691 87Q694 81 694 76Q694 58 676 56H670L382 192Q92 329 90 331Q83 336 83 348Q84 359 96 365Q104 369 382 500T665 634Q669 636 674 636ZM84 -118Q84 -108 99 -98H678Q694 -104 694 -118Q694 -130 679 -138H98Q84 -131 84 -118Z"/></defs><g stroke="currentColor" fill="currentColor" stroke-width="0" transform="scale(1,-1)"><g data-mml-node="math"><g data-mml-node="mo"><use data-c="2225" xlink:href="#MJX-48-TEX-N-2225"/></g><g data-mml-node="mi" transform="translate(500,0)"><use data-c="1D719" xlink:href="#MJX-48-TEX-I-1D719"/></g><g data-mml-node="mo" transform="translate(1096,0)"><use data-c="28" xlink:href="#MJX-48-TEX-N-28"/></g><g data-mml-node="mi" transform="translate(1485,0)"><use data-c="1D465" xlink:href="#MJX-48-TEX-I-1D465"/></g><g data-mml-node="mo" transform="translate(2057,0)"><use data-c="29" xlink:href="#MJX-48-TEX-N-29"/></g><g data-mml-node="mo" transform="translate(2668.2,0)"><use data-c="2212" xlink:href="#MJX-48-TEX-N-2212"/></g><g data-mml-node="mi" transform="translate(3668.4,0)"><use data-c="1D719" xlink:href="#MJX-48-TEX-I-1D719"/></g><g data-mml-node="mo" transform="translate(4264.4,0)"><use data-c="28" xlink:href="#MJX-48-TEX-N-28"/></g><g data-mml-node="mi" transform="translate(4653.4,0)"><use data-c="1D466" xlink:href="#MJX-48-TEX-I-1D466"/></g><g data-mml-node="mo" transform="translate(5143.4,0)"><use data-c="29" xlink:href="#MJX-48-TEX-N-29"/></g><g data-mml-node="mo" transform="translate(5532.4,0)"><use data-c="2225" xlink:href="#MJX-48-TEX-N-2225"/></g><g data-mml-node="mo" transform="translate(6310.2,0)"><use data-c="2264" xlink:href="#MJX-48-TEX-N-2264"/></g><g data-mml-node="mo" transform="translate(7366,0)"><use data-c="2225" xlink:href="#MJX-48-TEX-N-2225"/></g><g data-mml-node="mi" transform="translate(7866,0)"><use data-c="1D465" xlink:href="#MJX-48-TEX-I-1D465"/></g><g data-mml-node="mo" transform="translate(8660.2,0)"><use data-c="2212" xlink:href="#MJX-48-TEX-N-2212"/></g><g data-mml-node="mi" transform="translate(9660.4,0)"><use data-c="1D466" xlink:href="#MJX-48-TEX-I-1D466"/></g><g data-mml-node="mo" transform="translate(10150.4,0)"><use data-c="2225" xlink:href="#MJX-48-TEX-N-2225"/></g></g></g><style xmlns="http://www.w3.org/1999/xhtml" type="text/css">.mjx-solid { stroke-width: 80px; }</style></svg>